<svg width="49" height="38" viewBox="0 0 49 38" fill="none" xmlns="http://www.w3.org/2000/svg">
<path d="M22.312 27.4606C22.3685 28.7794 22.1335 30.0945 21.624 31.3122C21.1144 32.5298 20.3428 33.6203 19.3639 34.5058L19.3561 34.512C17.3294 36.3091 14.6898 37.2591 11.9827 37.1659H11.9997C10.3634 37.2544 8.72772 36.9815 7.20878 36.3665C5.68985 35.7516 4.32497 34.8097 3.2111 33.6077L3.20491 33.6015C0.971807 30.9516 -0.167194 27.5501 0.0198744 24.0898L0.018326 24.1223C-0.085451 20.5288 0.582463 16.9548 1.97704 13.6413L1.9151 13.807C3.02857 11.209 4.57345 8.81814 6.48439 6.73548L6.46736 6.75406C8.04607 5.0414 9.87538 3.57805 11.8929 2.41394L12.0044 2.3551C13.5303 1.47481 15.1228 0.715331 16.7672 0.0836129L17.0088 0.00154839L21.8614 8.19252C19.8449 9.00612 18.0749 10.3306 16.7254 12.0356L16.7053 12.0619C15.3616 13.6625 14.5188 15.6232 14.2821 17.6996L14.2774 17.7492C15.3334 17.7756 16.3718 18.0249 17.3247 18.4806C18.2775 18.9364 19.1234 19.5884 19.8067 20.3938L19.816 20.4046C21.5534 22.3392 22.4522 24.8841 22.3151 27.4808L22.3166 27.4575L22.312 27.4606ZM48.5541 27.4606C48.6099 28.7797 48.3746 30.0949 47.8648 31.3128C47.355 32.5307 46.5832 33.6214 45.6044 34.5074L45.5966 34.5135C43.5703 36.3113 40.9305 37.2615 38.2232 37.1675H38.2403C36.6039 37.2564 34.968 36.9837 33.449 36.3687C31.93 35.7537 30.5652 34.8116 29.4516 33.6093L29.4454 33.6015C27.2114 30.9515 26.0723 27.5492 26.2604 24.0883L26.2588 24.1208C26.1551 20.5273 26.823 16.9532 28.2175 13.6397L28.1556 13.8054C29.2686 11.2079 30.8123 8.81711 32.7218 6.73394L32.7048 6.75252C34.284 5.03982 36.1139 3.57647 38.1319 2.41239L38.2433 2.35355C39.7689 1.47264 41.3615 0.713139 43.0062 0.0820645L43.2477 0L48.0988 8.19097C46.082 9.00556 44.312 10.3311 42.9628 12.0372L42.9427 12.0635C41.599 13.6641 40.7562 15.6248 40.5195 17.7012L40.5148 17.7507C41.5704 17.777 42.6084 18.0262 43.5608 18.482C44.5132 18.9378 45.3584 19.5898 46.041 20.3954L46.0503 20.4062C47.7897 22.3393 48.6902 24.8839 48.5541 27.4808L48.5556 27.4575L48.5541 27.4606Z" fill="url(#paint0_linear_42_41)"/>
<defs>
<linearGradient id="paint0_linear_42_41" x1="24.2838" y1="0" x2="24.2838" y2="37.1839" gradientUnits="userSpaceOnUse">
<stop stop-color="#500BE6"/>
<stop offset="1" stop-color="#9F0BE5"/>
</linearGradient>
</defs>
</svg>
