<svg width="25" height="23" viewBox="0 0 25 23" fill="none" xmlns="http://www.w3.org/2000/svg">
<path d="M4.16667 0.907715C3.0616 0.907715 2.00179 1.37128 1.22039 2.19644C0.438987 3.0216 0 4.14076 0 5.30771V5.74992L12.5 12.8581L25 5.75212V5.30771C25 4.14076 24.561 3.0216 23.7796 2.19644C22.9982 1.37128 21.9384 0.907715 20.8333 0.907715H4.16667ZM25 8.24911L12.9938 15.0757C12.842 15.162 12.6723 15.2071 12.5 15.2071C12.3277 15.2071 12.158 15.162 12.0062 15.0757L0 8.24911V18.5077C0 19.6747 0.438987 20.7938 1.22039 21.619C2.00179 22.4441 3.0616 22.9077 4.16667 22.9077H20.8333C21.9384 22.9077 22.9982 22.4441 23.7796 21.619C24.561 20.7938 25 19.6747 25 18.5077V8.24911Z" fill="white"/>
</svg>
