<svg width="25" height="26" viewBox="0 0 25 26" fill="none" xmlns="http://www.w3.org/2000/svg">
<path d="M7.25 0.953857H17.75C21.75 0.953857 25 4.20386 25 8.20386V18.7039C25 20.6267 24.2362 22.4707 22.8765 23.8304C21.5169 25.19 19.6728 25.9539 17.75 25.9539H7.25C3.25 25.9539 0 22.7039 0 18.7039V8.20386C0 6.28104 0.763837 4.43697 2.12348 3.07733C3.48311 1.71769 5.32718 0.953857 7.25 0.953857ZM7 3.45386C5.80653 3.45386 4.66193 3.92796 3.81802 4.77188C2.97411 5.61579 2.5 6.76038 2.5 7.95386V18.9539C2.5 21.4414 4.5125 23.4539 7 23.4539H18C19.1935 23.4539 20.3381 22.9798 21.182 22.1358C22.0259 21.2919 22.5 20.1473 22.5 18.9539V7.95386C22.5 5.46636 20.4875 3.45386 18 3.45386H7ZM19.0625 5.32886C19.4769 5.32886 19.8743 5.49348 20.1674 5.7865C20.4604 6.07953 20.625 6.47696 20.625 6.89136C20.625 7.30576 20.4604 7.70319 20.1674 7.99621C19.8743 8.28924 19.4769 8.45386 19.0625 8.45386C18.6481 8.45386 18.2507 8.28924 17.9576 7.99621C17.6646 7.70319 17.5 7.30576 17.5 6.89136C17.5 6.47696 17.6646 6.07953 17.9576 5.7865C18.2507 5.49348 18.6481 5.32886 19.0625 5.32886ZM12.5 7.20386C14.1576 7.20386 15.7473 7.86234 16.9194 9.03444C18.0915 10.2065 18.75 11.7963 18.75 13.4539C18.75 15.1115 18.0915 16.7012 16.9194 17.8733C15.7473 19.0454 14.1576 19.7039 12.5 19.7039C10.8424 19.7039 9.25268 19.0454 8.08058 17.8733C6.90848 16.7012 6.25 15.1115 6.25 13.4539C6.25 11.7963 6.90848 10.2065 8.08058 9.03444C9.25268 7.86234 10.8424 7.20386 12.5 7.20386ZM12.5 9.70386C11.5054 9.70386 10.5516 10.0989 9.84835 10.8022C9.14509 11.5055 8.75 12.4593 8.75 13.4539C8.75 14.4484 9.14509 15.4022 9.84835 16.1055C10.5516 16.8088 11.5054 17.2039 12.5 17.2039C13.4946 17.2039 14.4484 16.8088 15.1517 16.1055C15.8549 15.4022 16.25 14.4484 16.25 13.4539C16.25 12.4593 15.8549 11.5055 15.1517 10.8022C14.4484 10.0989 13.4946 9.70386 12.5 9.70386Z" fill="white"/>
</svg>
