<svg width="25" height="25" viewBox="0 0 25 25" fill="none" xmlns="http://www.w3.org/2000/svg">
<path d="M18.1221 14.9525C17.818 14.7963 16.303 14.0541 16.0212 13.9537C15.7394 13.8476 15.5329 13.7974 15.3292 14.1099C15.1227 14.4196 14.5368 15.1088 14.3527 15.3181C14.1741 15.5245 13.9927 15.5496 13.6886 15.3962C11.8806 14.4922 10.6948 13.7835 9.50339 11.7383C9.1881 11.1942 9.81867 11.2332 10.4074 10.0586C10.5078 9.8521 10.4576 9.67632 10.3795 9.52007C10.3014 9.36382 9.68754 7.85154 9.43084 7.23492C9.18252 6.63503 8.92583 6.71873 8.73889 6.70757C8.56032 6.69641 8.35664 6.69641 8.15017 6.69641C7.9437 6.69641 7.61167 6.77454 7.32986 7.07867C7.04806 7.38838 6.25287 8.13335 6.25287 9.64563C6.25287 11.1579 7.35498 12.6227 7.50564 12.8292C7.66189 13.0357 9.67359 16.1384 12.7623 17.4749C14.7154 18.3175 15.4799 18.39 16.4564 18.245C17.0507 18.1557 18.2756 17.5028 18.5295 16.7801C18.7834 16.0603 18.7834 15.4436 18.7081 15.3153C18.6327 15.1786 18.4263 15.1004 18.1221 14.9525Z" fill="white"/>
<path d="M24.0289 7.65625C23.3983 6.15792 22.4943 4.81306 21.342 3.65792C20.1896 2.50558 18.8448 1.59877 17.3437 0.970982C15.8091 0.326451 14.1797 0 12.5 0H12.4442C10.7534 0.00837054 9.11556 0.343192 7.5754 1.00167C6.08825 1.63783 4.75456 2.54185 3.61339 3.6942C2.47223 4.84654 1.57659 6.18583 0.957178 7.67857C0.315445 9.22433 -0.00821214 10.8677 0.000158292 12.5586C0.00852872 14.495 0.471693 16.4174 1.33943 18.1362V22.3772C1.33943 23.0859 1.9142 23.6607 2.62289 23.6607H6.8667C8.58543 24.5285 10.5078 24.9916 12.4442 25H12.5028C14.1741 25 15.7952 24.6763 17.3214 24.043C18.8141 23.4208 20.1562 22.5279 21.3057 21.3867C22.458 20.2455 23.3648 18.9118 23.9982 17.4247C24.6567 15.8845 24.9915 14.2467 24.9998 12.5558C25.0082 10.8566 24.679 9.20759 24.0289 7.65625ZM19.813 19.8772C17.8571 21.8136 15.2622 22.8795 12.5 22.8795H12.4526C10.7701 22.8711 9.09882 22.4526 7.62283 21.6657L7.38846 21.5402H3.45994V17.6116L3.33438 17.3772C2.54756 15.9012 2.12904 14.2299 2.12067 12.5474C2.10951 9.76562 3.17255 7.15402 5.12286 5.18694C7.07038 3.21987 9.67359 2.1317 12.4554 2.12054H12.5028C13.8979 2.12054 15.2511 2.39118 16.5262 2.9269C17.7706 3.44866 18.8866 4.19922 19.8464 5.15904C20.8035 6.11607 21.5568 7.23493 22.0786 8.47935C22.6199 9.76841 22.8905 11.1356 22.8849 12.5474C22.8682 15.3265 21.7772 17.9297 19.813 19.8772Z" fill="white"/>
</svg>
