<svg width="175" height="115" viewBox="0 0 175 115" fill="none" xmlns="http://www.w3.org/2000/svg">
<path d="M79.6494 59.3494C75.9255 55.6721 71.4495 53.8309 66.2267 53.8309C60.8483 53.8309 56.2945 55.7447 52.5706 59.5776V42.5606C52.4098 42.2753 52.1868 42.0316 51.8652 41.8656H47.8093C47.7834 41.8915 47.7575 41.9175 47.7212 41.933C47.5189 42.0264 47.3581 42.1509 47.2181 42.3065V72.6061C47.2181 77.7667 49.08 82.1805 52.804 85.8629C56.5279 89.5402 61.0039 91.3814 66.2267 91.3814C71.4495 91.3814 75.9255 89.5557 79.6494 85.9044C83.3734 82.2531 85.2353 77.8342 85.2353 72.6528C85.2353 67.4611 83.3734 63.0266 79.6494 59.3494ZM75.8892 82.1442C73.2233 84.7737 70.0025 86.0911 66.2319 86.0911C62.4561 86.0911 59.2353 84.7789 56.5746 82.1442C53.9087 79.5146 52.5809 76.3456 52.5809 72.6425C52.5809 68.9393 53.9139 65.7599 56.5746 63.1044C59.2405 60.4489 62.4561 59.1212 66.2319 59.1212C70.0077 59.1212 73.2285 60.4489 75.8892 63.1044C78.5551 65.7599 79.8828 68.9393 79.8828 72.6425C79.8828 76.3456 78.5499 79.5146 75.8892 82.1442Z" fill="white"/>
<path d="M129.57 70.0025C129.207 67.6012 128.434 65.3554 127.241 63.26C127.189 63.2082 127.137 63.1459 127.085 63.0681C127.034 62.9903 126.982 62.9281 126.93 62.8762C126.722 62.4665 126.593 62.2383 126.541 62.1864C126.385 61.9842 126.23 61.7767 126.074 61.5744L125.685 60.9624C125.633 60.9624 125.607 60.9365 125.607 60.8846C125.348 60.5786 124.959 60.1689 124.446 59.6606L124.29 59.505C124.186 59.3494 124.057 59.2249 123.901 59.1212C123.642 58.8152 123.434 58.6129 123.279 58.5092C123.071 58.3536 122.838 58.1772 122.578 57.975C122.423 57.8194 122.267 57.7208 122.112 57.669C122.112 57.6171 122.06 57.5652 121.956 57.5134C121.645 57.2592 121.204 56.9532 120.639 56.5953C120.327 56.3931 119.835 56.1337 119.166 55.8277L119.088 55.7499C118.621 55.5477 118.284 55.3921 118.082 55.2883C118.03 55.2883 117.936 55.2624 117.812 55.2105C117.682 55.1587 117.589 55.1327 117.542 55.1327C117.024 54.8786 116.557 54.723 116.147 54.6711L115.991 54.5933C115.732 54.5415 115.551 54.4896 115.447 54.4378C115.395 54.4378 115.333 54.4274 115.255 54.4014C115.177 54.3755 115.11 54.3651 115.063 54.3651C114.856 54.3133 114.57 54.2614 114.207 54.2095C114.104 54.1577 114.026 54.1317 113.974 54.1317C113.87 54.0799 113.792 54.0539 113.741 54.0539H113.429C113.274 54.0539 113.17 54.028 113.118 53.9761H112.885C112.625 53.9243 112.366 53.8984 112.107 53.8984C111.536 53.8465 111.101 53.8206 110.789 53.8206C110.271 53.8206 109.783 53.8465 109.316 53.8984C109.265 53.9502 109.187 53.9761 109.083 53.9761H108.777C108.362 54.028 107.792 54.1058 107.071 54.2044H106.993C106.889 54.2562 106.759 54.2925 106.604 54.3185C106.448 54.3444 106.345 54.3807 106.293 54.4326C105.826 54.5363 105.489 54.6141 105.286 54.6608C105.131 54.7126 105.027 54.7386 104.975 54.7386C104.56 54.8942 104.047 55.0964 103.425 55.3506C103.269 55.4024 103.087 55.4802 102.88 55.5788C102.724 55.6307 102.621 55.6825 102.569 55.7344C102.361 55.8381 102.05 55.9885 101.64 56.196C101.433 56.2997 101.174 56.4398 100.862 56.6161C100.551 56.7976 100.344 56.9117 100.24 56.9584C99.6176 57.42 99.1041 57.7986 98.6892 58.1098C98.6373 58.2135 98.5336 58.3121 98.378 58.4158C97.6519 59.0278 97.0347 59.6139 96.5161 60.1792C96.5161 60.2311 96.4901 60.2933 96.4383 60.3711C96.3864 60.4489 96.3345 60.5112 96.2827 60.563L96.1271 60.7186C95.764 61.0765 95.4787 61.4344 95.2713 61.7922L95.1935 61.87C95.1416 61.9219 95.1157 61.9738 95.1157 62.0256C94.9601 62.2279 94.8045 62.4613 94.6489 62.7154L94.4933 62.9437C94.4414 63.0474 94.3896 63.1459 94.3377 63.2497C92.6314 66.1593 91.7756 69.2764 91.7756 72.5958C91.7756 77.803 93.622 82.2375 97.3252 85.8888C101.023 89.5402 105.509 91.3658 110.784 91.3658C112.802 91.3658 114.778 91.0495 116.718 90.4063C118.657 89.7684 120.442 88.8607 122.07 87.6886C123.699 86.5164 125.083 85.1109 126.219 83.4771C126.282 83.4201 126.344 83.3682 126.406 83.3163C126.406 82.9533 126.105 82.6525 125.737 82.6525H120.722C120.187 82.6525 119.669 82.8392 119.249 83.1607C119.243 83.1607 119.243 83.1659 119.238 83.1659C116.754 85.1057 113.938 86.0756 110.779 86.0756C107.47 86.0756 104.571 85.0538 102.092 83.0103C99.6072 80.9668 98.0305 78.3891 97.3563 75.272H127.111C128.579 75.272 129.788 74.1051 129.788 72.658C129.788 72.6477 129.788 72.6373 129.788 72.6269C129.803 71.6467 129.725 70.7649 129.57 70.0025ZM97.3718 70.0025C97.7349 68.3169 98.404 66.735 99.3894 65.2517C99.4931 65.0961 99.5709 64.9716 99.6228 64.8679C100.09 64.2558 100.525 63.7476 100.94 63.3378C101.044 63.2341 101.122 63.1615 101.174 63.1096C101.277 62.954 101.381 62.8555 101.485 62.8036C102.055 62.2953 102.543 61.9115 102.958 61.6522L103.425 61.3462C103.891 61.0402 104.483 60.7083 105.209 60.3504C105.364 60.2985 105.572 60.2259 105.831 60.1222C107.486 59.4583 109.14 59.1264 110.795 59.1264C112.345 59.1264 113.948 59.4324 115.608 60.0444L115.997 60.2C116.049 60.2 116.1 60.2155 116.152 60.2363C116.204 60.2622 116.23 60.2985 116.23 60.3504C116.749 60.5527 117.184 60.7601 117.547 60.9624H117.625L117.703 61.0402C118.118 61.2425 118.528 61.5277 118.943 61.8804C119.046 61.9842 119.124 62.036 119.176 62.036C119.695 62.4458 120.078 62.7777 120.338 63.0318L120.493 63.1874C120.805 63.4934 121.168 63.9032 121.577 64.4114C121.889 64.8212 122.2 65.2828 122.506 65.7911L122.584 65.8688C123.362 67.1447 123.875 68.5244 124.134 70.0077H97.3718V70.0025Z" fill="white"/>
<path d="M174.983 89.8306C174.931 89.7269 174.931 89.5972 174.978 89.4935V72.6062C174.978 67.4456 173.116 63.0318 169.392 59.3546C165.668 55.6773 161.192 53.8361 155.969 53.8361C150.746 53.8361 146.27 55.6773 142.547 59.3546C138.823 63.0318 136.961 67.4508 136.961 72.6062V89.6906C136.961 89.7061 136.955 89.7217 136.955 89.7373C137.168 89.8566 137.173 90.1937 136.976 90.3285C136.976 90.9042 137.448 91.371 138.034 91.371H140.908C141.634 91.371 142.22 90.7901 142.22 90.0744V89.7269C142.22 89.6231 142.256 89.5505 142.313 89.4935V72.601C142.313 68.9237 143.646 65.7548 146.307 63.0993C148.973 60.4437 152.188 59.116 155.964 59.116C159.74 59.116 162.961 60.4437 165.621 63.0993C168.287 65.7548 169.615 68.9237 169.615 72.601V89.4779C169.688 89.5817 169.698 89.7217 169.615 89.841C169.651 89.8928 169.677 89.9603 169.677 90.0381V106.36C169.677 107.159 170.336 107.807 171.145 107.807H173.334C174.252 107.807 174.999 107.071 174.999 106.163V89.9084C175.004 89.8929 174.993 89.8514 174.983 89.8306Z" fill="white"/>
<path d="M37.7994 69.9766C37.4364 67.5753 36.6636 65.3295 35.4707 63.2342C35.4188 63.1823 35.3669 63.1201 35.3151 63.0423C35.2632 62.9645 35.2113 62.9022 35.1595 62.8504C34.952 62.4406 34.8223 62.2124 34.7705 62.1605C34.6149 61.9583 34.4593 61.7508 34.3037 61.5485L33.9147 60.9365C33.8628 60.9365 33.8369 60.9106 33.8369 60.8587C33.5776 60.5527 33.1886 60.143 32.6751 59.6347L32.5195 59.4791C32.4158 59.3235 32.2861 59.199 32.1305 59.0953C31.8712 58.7893 31.6638 58.587 31.5082 58.4833C31.3007 58.3277 31.0673 58.1514 30.808 57.9491C30.6524 57.7935 30.4968 57.6949 30.3412 57.6431C30.3412 57.5912 30.2893 57.5393 30.1856 57.4875C29.8744 57.2333 29.4335 56.9273 28.8682 56.5695C28.557 56.3672 28.0643 56.1079 27.3952 55.8019L27.3174 55.7241C26.8507 55.5218 26.5135 55.3662 26.3113 55.2625C26.2594 55.2625 26.166 55.2365 26.0416 55.1847C25.9119 55.1328 25.8185 55.1069 25.7719 55.1069C25.2532 54.8527 24.7864 54.6971 24.3767 54.6453L24.2211 54.5675C23.9618 54.5156 23.7802 54.4637 23.6765 54.4119C23.6246 54.4119 23.5624 54.4015 23.4846 54.3756C23.4068 54.3496 23.3394 54.3393 23.2927 54.3393C23.0852 54.2874 22.8 54.2355 22.4369 54.1837C22.3332 54.1318 22.2554 54.1059 22.2035 54.1059C22.0998 54.054 22.022 54.0281 21.9701 54.0281H21.6589C21.5033 54.0281 21.3996 54.0021 21.3477 53.9503H21.1144C20.855 53.8984 20.5957 53.8725 20.3364 53.8725C19.7659 53.8206 19.3302 53.7947 19.019 53.7947C18.5003 53.7947 18.0128 53.8206 17.546 53.8725C17.4942 53.9243 17.4164 53.9503 17.3126 53.9503H17.0014C16.5865 54.0021 16.016 54.0799 15.2951 54.1785H15.2173C15.1135 54.2303 14.9839 54.2666 14.8283 54.2926C14.6727 54.3185 14.569 54.3548 14.5171 54.4067C14.0503 54.5104 13.7132 54.5882 13.5109 54.6349C13.3553 54.6868 13.2516 54.7127 13.1997 54.7127C12.7848 54.8683 12.2713 55.0706 11.6489 55.3247C11.4933 55.3766 11.3118 55.4544 11.1044 55.5529C10.9488 55.6048 10.845 55.6566 10.7932 55.7085C10.5857 55.8122 10.2745 55.9626 9.86478 56.1701C9.65732 56.2738 9.39799 56.4139 9.0868 56.5902C8.77561 56.7717 8.56814 56.8858 8.46441 56.9325C7.84203 57.3941 7.32856 57.7727 6.91364 58.0839C6.86178 58.1877 6.75805 58.2862 6.60245 58.3899C5.87634 59.002 5.25914 59.588 4.74049 60.1534C4.74049 60.2052 4.71456 60.2675 4.66269 60.3453C4.61083 60.4231 4.55896 60.4853 4.50709 60.5372L4.3515 60.6928C3.98844 61.0506 3.70318 61.4085 3.49572 61.7664L3.41792 61.8442C3.36606 61.896 3.34012 61.9479 3.34012 61.9998C3.18453 62.202 3.02893 62.4354 2.87334 62.6896L2.71774 62.9178C2.66588 63.0215 2.61401 63.1201 2.56215 63.2238C0.855778 66.1334 0 69.2505 0 72.5699C0 77.7772 1.84641 82.2117 5.54959 85.863C9.24758 89.5143 13.7339 91.3399 19.0086 91.3399C21.0262 91.3399 23.0023 91.0236 24.942 90.3804C26.8818 89.7425 28.6659 88.8349 30.2945 87.6627C31.9231 86.4905 33.3079 85.085 34.4437 83.4512C34.506 83.3942 34.5682 83.3423 34.6304 83.2905C34.6304 82.9274 34.3296 82.6266 33.9614 82.6266H28.946C28.4118 82.6266 27.8931 82.8133 27.473 83.1349C27.4679 83.1349 27.4679 83.14 27.4627 83.14C24.9783 85.0798 22.162 86.0497 19.0034 86.0497C15.6944 86.0497 12.7952 85.0279 10.316 82.9844C7.83166 80.941 6.25495 78.3633 5.5807 75.2462H35.3358C36.8036 75.2462 38.0121 74.0792 38.0121 72.6321C38.0121 72.6218 38.0121 72.6114 38.0121 72.601C38.0328 71.6208 37.955 70.7391 37.7994 69.9766ZM5.60145 69.9766C5.96451 68.291 6.63357 66.7091 7.61901 65.2258C7.72274 65.0702 7.80054 64.9457 7.85241 64.842C8.31919 64.23 8.75486 63.7217 9.16978 63.3119C9.27351 63.2082 9.35131 63.1356 9.40318 63.0837C9.50691 62.9281 9.61064 62.8296 9.71437 62.7777C10.2849 62.2695 10.7724 61.8857 11.1873 61.6263L11.6541 61.3203C12.1209 61.0143 12.7122 60.6824 13.4383 60.3245C13.5939 60.2726 13.8013 60.2 14.0607 60.0963C15.7152 59.4324 17.3697 59.1005 19.0242 59.1005C20.575 59.1005 22.1776 59.4065 23.8373 60.0185L24.2263 60.1741C24.2781 60.1741 24.33 60.1897 24.3819 60.2104C24.4337 60.2363 24.4597 60.2726 24.4597 60.3245C24.9783 60.5268 25.414 60.7343 25.777 60.9365H25.8548L25.9326 61.0143C26.3476 61.2166 26.7573 61.5019 27.1722 61.8545C27.276 61.9583 27.3537 62.0101 27.4056 62.0101C27.9243 62.4199 28.3081 62.7518 28.5674 63.0059L28.723 63.1616C29.0342 63.4676 29.3972 63.8773 29.807 64.3856C30.1182 64.7953 30.4294 65.2569 30.7354 65.7652L30.8132 65.843C31.5911 67.1189 32.1046 68.4985 32.3639 69.9818H5.60145V69.9766Z" fill="white"/>
<path d="M172.073 114.767C173.629 114.767 174.89 113.523 174.89 111.987C174.89 110.452 173.629 109.208 172.073 109.208C170.518 109.208 169.257 110.452 169.257 111.987C169.257 113.523 170.518 114.767 172.073 114.767Z" fill="white"/>
<path d="M89.7477 12.0586H68.0732C66.7403 12.0586 65.4436 12.292 64.1937 12.764C62.9437 13.236 61.8183 13.8895 60.8121 14.7349C59.8111 15.5803 58.9345 16.5761 58.1825 17.7223C57.4304 18.8686 56.8496 20.1393 56.4295 21.5241C56.0145 22.914 55.8019 24.3611 55.8019 25.8652C55.8019 29.6617 57.0052 32.9085 59.4065 35.6159C61.8079 38.3232 64.6968 39.6717 68.068 39.6717H89.7425C89.8151 39.6717 89.8877 39.6873 89.9603 39.708V35.7507C89.8929 35.7714 89.8203 35.787 89.7425 35.787H83.2645C83.0623 35.787 82.8704 35.7559 82.6785 35.7144H75.018L74.9972 35.7403C74.8987 35.8493 74.769 35.9063 74.629 35.9115C74.5045 35.9167 74.3852 35.8544 74.2918 35.7663C74.1777 35.7818 74.0636 35.7922 73.9443 35.7922H68.068C65.6303 35.7922 63.5557 34.8275 61.8338 32.8877C60.1171 30.9532 59.2561 28.614 59.2561 25.8704C59.2561 23.1267 60.1171 20.7876 61.8338 18.853C63.5557 16.9184 65.6303 15.9485 68.068 15.9485H73.9443C74.0429 15.9485 74.1362 15.9589 74.2348 15.9693C74.2607 15.9537 74.2918 15.9382 74.3178 15.9278C74.3645 15.9226 74.4111 15.9122 74.4578 15.907C74.5045 15.907 74.5512 15.9174 74.5979 15.933C74.6445 15.9174 74.6912 15.907 74.7483 15.907H85.7852C85.8578 15.907 85.92 15.9226 85.9771 15.9485H89.7477C89.8203 15.9485 89.8929 15.9641 89.9655 15.9952V12.0275C89.8981 12.0431 89.8255 12.0586 89.7477 12.0586Z" fill="white"/>
<path d="M76.7606 29.8848C78.76 29.8848 80.3808 28.0596 80.3808 25.8082C80.3808 23.5567 78.76 21.7316 76.7606 21.7316C74.7612 21.7316 73.1404 23.5567 73.1404 25.8082C73.1404 28.0596 74.7612 29.8848 76.7606 29.8848Z" fill="white"/>
<path d="M85.2769 27.6494H106.951C108.284 27.6494 109.581 27.416 110.831 26.944C112.081 26.472 113.206 25.8185 114.212 24.9731C115.213 24.1277 116.09 23.1319 116.842 21.9857C117.594 20.8395 118.175 19.5688 118.595 18.184C119.01 16.794 119.223 15.3469 119.223 13.8428C119.223 10.0463 118.019 6.79954 115.618 4.09217C113.217 1.3848 110.328 0.0363016 106.957 0.0363016H85.282C85.2094 0.0363016 85.1368 0.0207461 85.0642 0V3.95732C85.1316 3.93658 85.2042 3.92101 85.282 3.92101H91.76C91.9623 3.92101 92.1542 3.95213 92.3461 3.99362H100.007L100.027 3.96769C100.126 3.85877 100.256 3.80172 100.396 3.79653C100.52 3.79135 100.639 3.85359 100.733 3.94176C100.847 3.9262 100.961 3.91583 101.08 3.91583H106.957C109.394 3.91583 111.469 4.88052 113.191 6.82028C114.907 8.75486 115.768 11.094 115.768 13.8377C115.768 16.5813 114.907 18.9205 113.191 20.855C111.469 22.7896 109.394 23.7595 106.957 23.7595H101.08C100.982 23.7595 100.888 23.7491 100.79 23.7387C100.764 23.7543 100.733 23.7699 100.707 23.7802C100.66 23.7854 100.613 23.7958 100.567 23.801C100.52 23.801 100.473 23.7906 100.427 23.775C100.38 23.7906 100.333 23.801 100.276 23.801H89.2394C89.1667 23.801 89.1045 23.7854 89.0475 23.7595H85.2769C85.2042 23.7595 85.1316 23.7439 85.059 23.7128V27.6805C85.1264 27.6649 85.1991 27.6494 85.2769 27.6494Z" fill="white"/>
<path d="M98.264 17.9765C100.263 17.9765 101.884 16.1514 101.884 13.8999C101.884 11.6485 100.263 9.8233 98.264 9.8233C96.2646 9.8233 94.6438 11.6485 94.6438 13.8999C94.6438 16.1514 96.2646 17.9765 98.264 17.9765Z" fill="white"/>
</svg>
